<svg xmlns="http://www.w3.org/2000/svg" width="472" height="364" fill="none" viewBox="0 0 472 364">
    <g clip-path="url(#clip0)">
        <g clip-path="url(#clip1)">
            <rect width="474" height="364" fill="#DCF7FF" rx="8"/>
            <path stroke="#1CB1B4" stroke-width="2" d="M196.563-204.35c-97.113-30.73-151.56 23.224-171.682 84.611C4.759-58.352 31.098 25.367 15.72 84.206c-15.378 58.84-73.846 87.717-73.846 87.717" opacity=".06"/>
            <path stroke="#1CB1B4" stroke-width="2" d="M209.36-87.192C112.247-117.92 57.8-63.968 37.678-2.58c-20.122 61.388 6.217 145.106-9.16 203.946-15.378 58.839-73.846 87.716-73.846 87.716" opacity=".06"/>
            <path stroke="#1CB1B4" stroke-width="2" d="M183.413-102.658C84.228-88.751 45.674-13.65 41.357 53.295 37.039 120.24 82 187.745 81.559 250.182c-.442 62.436-48.806 115.606-48.806 115.606M710.594-156.869c-148.856-47.102-232.313 35.598-263.156 129.693-30.843 94.095 9.53 222.42-14.041 312.609-23.571 90.19-113.191 134.452-113.191 134.452" opacity=".06"/>
            <path stroke="#1CB1B4" stroke-width="2" d="M630.563 41.307c-97.113-30.73-151.56 23.224-171.682 84.611-20.122 61.387 6.217 145.106-9.161 203.945-15.377 58.84-73.845 87.716-73.845 87.716" opacity=".06"/>
        </g>
        <path fill="#61DAFB" d="M133.108 249.493v-23.6h9.568c2.475 0 4.32.565 5.536 1.696 1.227 1.12 1.84 2.736 1.84 4.848 0 1.216-.234 2.256-.704 3.12-.458.853-1.029 1.515-1.712 1.984-.672.469-1.322.731-1.952.784.651.043 1.264.208 1.84.496.587.277 1.067.72 1.44 1.328.374.608.56 1.424.56 2.448v4.496c0 .523.038 1.008.112 1.456.086.437.208.752.368.944h-4.976c-.138-.213-.25-.533-.336-.96-.085-.437-.128-.917-.128-1.44v-1.952-1.968c0-.928-.24-1.643-.72-2.144-.48-.512-1.248-.768-2.304-.768h-4.896l1.328-1.584v10.816h-4.864zm4.864-11.264l-1.328-1.808h4.96c.64 0 1.211-.144 1.712-.432.502-.288.896-.699 1.184-1.232.299-.533.448-1.157.448-1.872 0-1.003-.304-1.781-.912-2.336-.597-.555-1.44-.832-2.528-.832h-4.976l1.44-1.616v10.128zm17.149 4.256v-3.28h11.264l-.48.832v-.24-.24c0-.608-.144-1.189-.432-1.744-.288-.565-.736-1.024-1.344-1.376-.597-.363-1.365-.544-2.304-.544-.938 0-1.749.203-2.432.608-.672.395-1.189.965-1.552 1.712-.352.747-.528 1.648-.528 2.704 0 1.088.171 2.021.512 2.8.352.768.87 1.36 1.552 1.776.694.416 1.552.624 2.576.624.662 0 1.232-.059 1.712-.176.48-.128.87-.288 1.168-.48.31-.192.544-.405.704-.64.16-.235.256-.464.288-.688h4.896c-.064.715-.309 1.419-.736 2.112-.426.683-1.018 1.301-1.776 1.856-.757.544-1.68.976-2.768 1.296-1.077.32-2.309.48-3.696.48-1.877 0-3.514-.373-4.912-1.12-1.397-.757-2.48-1.797-3.248-3.12-.768-1.333-1.152-2.869-1.152-4.608 0-1.76.39-3.301 1.168-4.624.79-1.333 1.883-2.368 3.28-3.104 1.408-.747 3.035-1.12 4.88-1.12 1.888 0 3.52.379 4.896 1.136 1.376.747 2.438 1.797 3.184 3.152.747 1.344 1.12 2.912 1.12 4.704 0 .267-.005.523-.016.768-.01.245-.026.427-.048.544h-15.776zm24.7 7.36c-1.237 0-2.341-.197-3.312-.592-.96-.395-1.712-.965-2.256-1.712-.544-.747-.816-1.653-.816-2.72 0-1.205.331-2.187.992-2.944.661-.757 1.536-1.333 2.624-1.728 1.099-.405 2.288-.672 3.568-.8 1.867-.181 3.152-.347 3.856-.496.715-.149 1.072-.411 1.072-.784v-.032c0-.629-.304-1.125-.912-1.488-.597-.363-1.435-.544-2.512-.544-1.141 0-2.016.208-2.624.624-.597.405-.896 1.029-.896 1.872h-4.88c0-1.365.368-2.517 1.104-3.456.747-.939 1.755-1.648 3.024-2.128 1.269-.491 2.704-.736 4.304-.736 1.493 0 2.875.229 4.144.688 1.269.448 2.288 1.125 3.056 2.032.779.907 1.168 2.059 1.168 3.456v7.344c0 .437.011.859.032 1.264.032.395.096.757.192 1.088.107.373.24.683.4.928.16.245.293.416.4.512h-4.88c-.075-.075-.192-.229-.352-.464-.149-.235-.277-.507-.384-.816-.128-.373-.224-.747-.288-1.12-.053-.384-.08-.832-.08-1.344l1.024.704c-.299.704-.784 1.312-1.456 1.824-.661.501-1.451.891-2.368 1.168-.907.267-1.888.4-2.944.4zm1.328-3.712c.779 0 1.504-.139 2.176-.416.683-.288 1.237-.736 1.664-1.344.427-.608.64-1.403.64-2.384v-1.712l1.232 1.2c-.704.256-1.52.469-2.448.64-.917.16-1.835.288-2.752.384-1.088.107-1.904.293-2.448.56-.533.256-.8.693-.8 1.312 0 .587.229 1.029.688 1.328.459.288 1.141.432 2.048.432zm21.566 3.744c-1.867 0-3.504-.373-4.912-1.12-1.408-.757-2.502-1.808-3.28-3.152-.768-1.344-1.152-2.896-1.152-4.656 0-1.781.384-3.323 1.152-4.624.778-1.312 1.872-2.331 3.28-3.056 1.408-.725 3.045-1.088 4.912-1.088 1.397 0 2.634.208 3.712.624 1.077.405 1.978.944 2.704 1.616.725.672 1.274 1.408 1.648 2.208.373.8.56 1.595.56 2.384v.128h-4.912c0-.064-.006-.123-.016-.176 0-.064-.011-.128-.032-.192-.086-.448-.272-.869-.56-1.264-.288-.395-.694-.715-1.216-.96-.512-.256-1.152-.384-1.92-.384-.822 0-1.558.181-2.208.544-.64.363-1.147.901-1.52 1.616-.374.704-.56 1.579-.56 2.624 0 1.024.186 1.909.56 2.656.373.736.88 1.301 1.52 1.696.65.395 1.386.592 2.208.592.842 0 1.53-.128 2.064-.384.533-.267.933-.619 1.2-1.056.266-.448.426-.939.48-1.472h4.912c0 .789-.187 1.595-.56 2.416-.363.811-.907 1.552-1.632 2.224-.715.672-1.611 1.216-2.688 1.632-1.078.416-2.326.624-3.744.624zm19.917-.032c-.651 0-1.323-.059-2.016-.176-.683-.107-1.323-.325-1.92-.656-.587-.341-1.062-.837-1.424-1.488-.363-.651-.544-1.509-.544-2.576v-.72-7.888h-3.92v-3.84h1.104c.64 0 1.146-.027 1.52-.08.384-.053.666-.187.848-.4.192-.224.314-.571.368-1.04.053-.469.08-1.115.08-1.936v-2.144h4.976v5.6h4.944v3.84h-4.944V243.541c0 .736.085 1.333.256 1.792.181.459.624.688 1.328.688.352 0 .682-.032.992-.096.32-.064.56-.128.72-.192v3.728c-.224.096-.539.181-.944.256-.406.085-.88.128-1.424.128zm19.887-.352h-4.848v-23.6h7.712l7.904 21.808-.832.208v-22.016h4.832v23.6h-7.76l-7.904-21.744.896-.208v21.952zm24.427.352c-1.237 0-2.341-.197-3.312-.592-.96-.395-1.712-.965-2.256-1.712-.544-.747-.816-1.653-.816-2.72 0-1.205.331-2.187.992-2.944.661-.757 1.536-1.333 2.624-1.728 1.099-.405 2.288-.672 3.568-.8 1.867-.181 3.152-.347 3.856-.496.715-.149 1.072-.411 1.072-.784v-.032c0-.629-.304-1.125-.912-1.488-.597-.363-1.435-.544-2.512-.544-1.141 0-2.016.208-2.624.624-.597.405-.896 1.029-.896 1.872h-4.88c0-1.365.368-2.517 1.104-3.456.747-.939 1.755-1.648 3.024-2.128 1.269-.491 2.704-.736 4.304-.736 1.493 0 2.875.229 4.144.688 1.269.448 2.288 1.125 3.056 2.032.779.907 1.168 2.059 1.168 3.456v7.344c0 .437.011.859.032 1.264.032.395.096.757.192 1.088.107.373.24.683.4.928.16.245.293.416.4.512h-4.88c-.075-.075-.192-.229-.352-.464-.149-.235-.277-.507-.384-.816-.128-.373-.224-.747-.288-1.12-.053-.384-.08-.832-.08-1.344l1.024.704c-.299.704-.784 1.312-1.456 1.824-.661.501-1.451.891-2.368 1.168-.907.267-1.888.4-2.944.4zm1.328-3.712c.779 0 1.504-.139 2.176-.416.683-.288 1.237-.736 1.664-1.344.427-.608.64-1.403.64-2.384v-1.712l1.232 1.2c-.704.256-1.52.469-2.448.64-.917.16-1.835.288-2.752.384-1.088.107-1.904.293-2.448.56-.533.256-.8.693-.8 1.312 0 .587.229 1.029.688 1.328.459.288 1.141.432 2.048.432zm20.983 3.712c-.651 0-1.323-.059-2.016-.176-.683-.107-1.323-.325-1.92-.656-.587-.341-1.062-.837-1.424-1.488-.363-.651-.544-1.509-.544-2.576v-.72-7.888h-3.92v-3.84h1.104c.64 0 1.146-.027 1.52-.08.384-.053.666-.187.848-.4.192-.224.314-.571.368-1.04.053-.469.08-1.115.08-1.936v-2.144h4.976v5.6h4.944v3.84h-4.944V243.541c0 .736.085 1.333.256 1.792.181.459.624.688 1.328.688.352 0 .682-.032.992-.096.32-.064.56-.128.72-.192v3.728c-.224.096-.539.181-.944.256-.406.085-.88.128-1.424.128zm6.831-.352v-16.992H301v16.992h-4.912zm2.448-19.76c-.768 0-1.44-.203-2.016-.608-.566-.405-.848-.976-.848-1.712 0-.747.282-1.323.848-1.728.576-.405 1.248-.608 2.016-.608.778 0 1.45.203 2.016.608.576.405.864.981.864 1.728s-.288 1.323-.864 1.728c-.566.395-1.238.592-2.016.592zm21.719 2.768l-5.152 16.992h-6.688l-5.264-16.992h5.12l3.872 15.488h-.768l3.744-15.488h5.136zm3.585 9.984v-3.28h11.264l-.48.832v-.24-.24c0-.608-.144-1.189-.432-1.744-.288-.565-.736-1.024-1.344-1.376-.597-.363-1.365-.544-2.304-.544-.939 0-1.749.203-2.432.608-.672.395-1.189.965-1.552 1.712-.352.747-.528 1.648-.528 2.704 0 1.088.171 2.021.512 2.8.352.768.869 1.36 1.552 1.776.693.416 1.552.624 2.576.624.661 0 1.232-.059 1.712-.176.48-.128.869-.288 1.168-.48.309-.192.544-.405.704-.64.16-.235.256-.464.288-.688h4.896c-.064.715-.309 1.419-.736 2.112-.427.683-1.019 1.301-1.776 1.856-.757.544-1.68.976-2.768 1.296-1.077.32-2.309.48-3.696.48-1.877 0-3.515-.373-4.912-1.12-1.397-.757-2.48-1.797-3.248-3.12-.768-1.333-1.152-2.869-1.152-4.608 0-1.76.389-3.301 1.168-4.624.789-1.333 1.883-2.368 3.28-3.104 1.408-.747 3.035-1.12 4.88-1.12 1.888 0 3.52.379 4.896 1.136 1.376.747 2.437 1.797 3.184 3.152.747 1.344 1.12 2.912 1.12 4.704 0 .267-.005.523-.016.768s-.027.427-.048.544H323.84zm-146.693 19.248h-7.792l1.984-2.368v22.128h-4.944v-22.128l2.048 2.368h-7.84v-3.84h16.544v3.84zm2.662 12.752v-3.28h11.264l-.48.832v-.24-.24c0-.608-.144-1.189-.432-1.744-.288-.565-.736-1.024-1.344-1.376-.598-.363-1.366-.544-2.304-.544-.939 0-1.75.203-2.432.608-.672.395-1.19.965-1.552 1.712-.352.747-.528 1.648-.528 2.704 0 1.088.17 2.021.512 2.8.352.768.869 1.36 1.552 1.776.693.416 1.552.624 2.576.624.661 0 1.232-.059 1.712-.176.48-.128.869-.288 1.168-.48.309-.192.544-.405.704-.64.16-.235.256-.464.288-.688h4.896c-.064.715-.31 1.419-.736 2.112-.427.683-1.019 1.301-1.776 1.856-.758.544-1.68.976-2.768 1.296-1.078.32-2.31.48-3.696.48-1.878 0-3.515-.373-4.912-1.12-1.398-.757-2.48-1.797-3.248-3.12-.768-1.333-1.152-2.869-1.152-4.608 0-1.76.389-3.301 1.168-4.624.789-1.333 1.882-2.368 3.28-3.104 1.408-.747 3.034-1.12 4.88-1.12 1.888 0 3.52.379 4.896 1.136 1.376.747 2.437 1.797 3.184 3.152.746 1.344 1.12 2.912 1.12 4.704 0 .267-.006.523-.016.768-.011.245-.027.427-.048.544h-15.776zm29.548 7.008v-6.576-1.632-1.168c0-.437-.027-.869-.08-1.296-.043-.427-.15-.821-.32-1.184-.16-.373-.411-.667-.752-.88-.342-.224-.806-.336-1.393-.336-.543 0-1.013.117-1.407.352-.395.224-.72.539-.976.944-.246.395-.427.853-.544 1.376-.118.512-.176 1.051-.176 1.616l-1.36-1.12c0-1.44.261-2.715.784-3.824.522-1.12 1.264-1.995 2.224-2.624.97-.64 2.117-.96 3.44-.96 1.418 0 2.522.304 3.312.912.8.597 1.36 1.397 1.68 2.4.33.992.496 2.091.496 3.296v10.704h-4.928zm-10.608 0v-16.992h4.96v16.992h-4.96zm21.168 0v-6.56-1.68-1.168c0-.469-.027-.917-.08-1.344-.054-.437-.166-.832-.336-1.184-.171-.352-.427-.629-.768-.832-.342-.203-.806-.304-1.392-.304-.544 0-1.014.117-1.408.352-.384.224-.699.533-.944.928-.246.395-.427.843-.545 1.344-.106.501-.159 1.024-.159 1.568l-1.36-1.104c0-1.419.256-2.677.768-3.776.522-1.099 1.258-1.963 2.208-2.592.96-.64 2.106-.96 3.44-.96 1.386 0 2.48.293 3.28.88.81.587 1.386 1.371 1.728 2.352.352.971.528 2.059.528 3.264V281.493h-4.96zm8.675 6.992v-23.984h4.976v23.984h-4.976zm10.224-6.608c-1.344 0-2.576-.357-3.696-1.072-1.12-.725-2.016-1.696-2.688-2.912-.672-1.227-1.008-2.603-1.008-4.128v-.112-.144l2.144-.048v.192c0 .789.192 1.483.576 2.08.384.587.88 1.04 1.488 1.36.608.32 1.243.48 1.904.48 1.088 0 2.032-.373 2.832-1.12.811-.757 1.216-1.936 1.216-3.536s-.4-2.763-1.2-3.488c-.8-.736-1.749-1.104-2.848-1.104-.661 0-1.296.16-1.904.48-.608.309-1.104.752-1.488 1.328-.384.576-.576 1.264-.576 2.064l-2.144-.128c0-1.536.336-2.891 1.008-4.064.672-1.184 1.568-2.117 2.688-2.8 1.12-.683 2.352-1.024 3.696-1.024 1.376 0 2.662.341 3.856 1.024 1.195.672 2.16 1.659 2.896 2.96.747 1.301 1.12 2.885 1.12 4.752 0 1.952-.362 3.595-1.088 4.928-.725 1.333-1.685 2.341-2.88 3.024-1.194.672-2.496 1.008-3.904 1.008zm16.1-25.392v25.008h-4.896v-25.008h4.896zm9.718 25.36c-1.238 0-2.342-.197-3.312-.592-.96-.395-1.712-.965-2.256-1.712-.544-.747-.816-1.653-.816-2.72 0-1.205.33-2.187.992-2.944.661-.757 1.536-1.333 2.624-1.728 1.098-.405 2.288-.672 3.568-.8 1.866-.181 3.152-.347 3.856-.496.714-.149 1.072-.411 1.072-.784v-.032c0-.629-.304-1.125-.912-1.488-.598-.363-1.435-.544-2.512-.544-1.142 0-2.016.208-2.624.624-.598.405-.896 1.029-.896 1.872h-4.88c0-1.365.368-2.517 1.104-3.456.746-.939 1.754-1.648 3.024-2.128 1.269-.491 2.704-.736 4.304-.736 1.493 0 2.874.229 4.144.688 1.269.448 2.288 1.125 3.056 2.032.778.907 1.168 2.059 1.168 3.456v7.344c0 .437.01.859.032 1.264.032.395.096.757.192 1.088.106.373.24.683.4.928.16.245.293.416.4.512h-4.88c-.075-.075-.192-.229-.352-.464-.15-.235-.278-.507-.384-.816-.128-.373-.224-.747-.288-1.12-.054-.384-.08-.832-.08-1.344l1.024.704c-.299.704-.784 1.312-1.456 1.824-.662.501-1.451.891-2.368 1.168-.907.267-1.888.4-2.944.4zm1.328-3.712c.778 0 1.504-.139 2.176-.416.682-.288 1.237-.736 1.664-1.344.426-.608.64-1.403.64-2.384v-1.712l1.232 1.2c-.704.256-1.52.469-2.448.64-.918.16-1.835.288-2.752.384-1.088.107-1.904.293-2.448.56-.534.256-.8.693-.8 1.312 0 .587.229 1.029.688 1.328.458.288 1.141.432 2.048.432zm20.982 3.712c-.65 0-1.322-.059-2.016-.176-.682-.107-1.322-.325-1.92-.656-.586-.341-1.061-.837-1.424-1.488-.362-.651-.544-1.509-.544-2.576v-.72-7.888h-3.92v-3.84h1.104c.64 0 1.147-.027 1.52-.08.384-.053.667-.187.848-.4.192-.224.315-.571.368-1.04.054-.469.08-1.115.08-1.936v-2.144h4.976v5.6h4.944v3.84h-4.944V275.541c0 .736.086 1.333.256 1.792.182.459.624.688 1.328.688.352 0 .683-.032.992-.096.32-.064.56-.128.72-.192v3.728c-.224.096-.538.181-.944.256-.405.085-.88.128-1.424.128zm8.521-7.36v-3.28h11.264l-.48.832v-.24-.24c0-.608-.144-1.189-.432-1.744-.288-.565-.736-1.024-1.344-1.376-.597-.363-1.365-.544-2.304-.544-.939 0-1.749.203-2.432.608-.672.395-1.189.965-1.552 1.712-.352.747-.528 1.648-.528 2.704 0 1.088.171 2.021.512 2.8.352.768.869 1.36 1.552 1.776.693.416 1.552.624 2.576.624.661 0 1.232-.059 1.712-.176.48-.128.869-.288 1.168-.48.309-.192.544-.405.704-.64.16-.235.256-.464.288-.688h4.896c-.064.715-.309 1.419-.736 2.112-.427.683-1.019 1.301-1.776 1.856-.757.544-1.68.976-2.768 1.296-1.077.32-2.309.48-3.696.48-1.877 0-3.515-.373-4.912-1.12-1.397-.757-2.48-1.797-3.248-3.12-.768-1.333-1.152-2.869-1.152-4.608 0-1.76.389-3.301 1.168-4.624.789-1.333 1.883-2.368 3.28-3.104 1.408-.747 3.035-1.12 4.88-1.12 1.888 0 3.52.379 4.896 1.136 1.376.747 2.437 1.797 3.184 3.152.747 1.344 1.12 2.912 1.12 4.704 0 .267-.005.523-.016.768s-.027.427-.048.544h-15.776zM301 142.013c0-8.629-10.785-16.806-27.32-21.878 3.816-16.886 2.12-30.32-5.352-34.622-1.723-1.009-3.736-1.486-5.936-1.486v5.92c1.219 0 2.2.24 3.021.69 3.604 2.072 5.167 9.957 3.948 20.1-.291 2.495-.768 5.124-1.351 7.805-5.194-1.274-10.864-2.256-16.827-2.894-3.577-4.911-7.287-9.372-11.023-13.275 8.639-8.045 16.747-12.452 22.259-12.452V84c-7.287 0-16.827 5.204-26.472 14.231-9.645-8.974-19.185-14.125-26.472-14.125v5.921c5.485 0 13.62 4.38 22.259 12.373-3.71 3.903-7.42 8.337-10.944 13.248-5.989.638-11.659 1.62-16.853 2.921-.609-2.655-1.06-5.23-1.378-7.7-1.245-10.142.292-18.028 3.869-20.125.795-.478 1.828-.69 3.047-.69v-5.921c-2.226 0-4.239.478-5.988 1.487-7.446 4.3-9.116 17.709-5.273 34.542C181.732 125.26 171 133.411 171 142.013c0 8.629 10.785 16.807 27.32 21.878-3.816 16.886-2.12 30.321 5.352 34.622 1.723 1.009 3.736 1.487 5.962 1.487 7.287 0 16.827-5.204 26.472-14.231 9.645 8.974 19.185 14.125 26.472 14.125 2.226 0 4.239-.478 5.988-1.487 7.446-4.301 9.116-17.709 5.273-34.543C290.268 158.793 301 150.616 301 142.013zm-34.501-17.709c-.98 3.425-2.199 6.956-3.577 10.487-1.086-2.124-2.226-4.248-3.471-6.372-1.219-2.124-2.517-4.195-3.816-6.213 3.763.558 7.393 1.248 10.864 2.098zm-12.136 28.276c-2.067 3.585-4.186 6.983-6.386 10.143-3.948.345-7.949.531-11.977.531-4.001 0-8.002-.186-11.924-.505-2.2-3.159-4.346-6.531-6.413-10.089-2.014-3.478-3.842-7.009-5.511-10.567 1.643-3.558 3.497-7.116 5.485-10.594 2.067-3.584 4.186-6.983 6.386-10.142 3.948-.345 7.949-.531 11.977-.531 4.001 0 8.002.186 11.924.504 2.2 3.16 4.346 6.532 6.413 10.09 2.014 3.478 3.842 7.009 5.511 10.567-1.669 3.558-3.497 7.115-5.485 10.593zm8.559-3.451c1.431 3.558 2.65 7.115 3.657 10.567-3.471.85-7.128 1.567-10.917 2.124 1.298-2.044 2.596-4.142 3.815-6.292 1.219-2.124 2.359-4.275 3.445-6.399zm-26.869 28.329c-2.464-2.548-4.929-5.389-7.366-8.496 2.384.106 4.822.186 7.287.186 2.49 0 4.955-.053 7.366-.186-2.385 3.107-4.849 5.948-7.287 8.496zm-19.715-15.638c-3.762-.557-7.393-1.248-10.864-2.097.981-3.425 2.199-6.957 3.577-10.488 1.087 2.124 2.226 4.248 3.472 6.372 1.245 2.124 2.517 4.195 3.815 6.213zm19.583-55.252c2.464 2.549 4.928 5.39 7.366 8.496-2.385-.106-4.823-.186-7.287-.186-2.491 0-4.955.054-7.366.186 2.384-3.106 4.849-5.947 7.287-8.496zm-19.609 15.638c-1.299 2.045-2.597 4.142-3.816 6.293-1.219 2.124-2.358 4.248-3.445 6.372-1.431-3.558-2.649-7.115-3.656-10.567 3.471-.823 7.128-1.54 10.917-2.098zm-23.981 33.242c-9.38-4.009-15.448-9.266-15.448-13.435 0-4.168 6.068-9.452 15.448-13.434 2.279-.983 4.77-1.859 7.34-2.682 1.51 5.204 3.498 10.62 5.962 16.169-2.438 5.523-4.399 10.913-5.882 16.09-2.624-.823-5.115-1.726-7.42-2.708zm14.256 37.941c-3.604-2.071-5.167-9.957-3.948-20.099.291-2.496.768-5.124 1.351-7.806 5.194 1.275 10.864 2.257 16.827 2.894 3.577 4.912 7.287 9.373 11.023 13.275-8.639 8.045-16.747 12.453-22.259 12.453-1.192-.027-2.199-.266-2.994-.717zm62.854-20.232c1.245 10.143-.292 18.028-3.869 20.126-.795.478-1.828.69-3.047.69-5.485 0-13.62-4.381-22.259-12.373 3.71-3.903 7.42-8.337 10.944-13.248 5.989-.638 11.659-1.62 16.853-2.921.609 2.682 1.086 5.257 1.378 7.726zm10.201-17.709c-2.278.982-4.769 1.858-7.34 2.682-1.51-5.204-3.497-10.621-5.962-16.17 2.438-5.522 4.399-10.912 5.883-16.09 2.623.824 5.114 1.726 7.446 2.709 9.38 4.009 15.448 9.266 15.448 13.434-.026 4.169-6.094 9.452-15.475 13.435z"/>
        <path fill="#61DAFB" d="M235.973 154.147c6.688 0 12.11-5.432 12.11-12.134 0-6.701-5.422-12.133-12.11-12.133-6.687 0-12.109 5.432-12.109 12.133 0 6.702 5.422 12.134 12.109 12.134z"/>
    </g>
    <defs>
        <clipPath id="clip0">
            <path fill="#fff" d="M0 8c0-4.418 3.582-8 8-8h456c4.418 0 8 3.582 8 8v348c0 4.418-3.582 8-8 8H8c-4.418 0-8-3.582-8-8V8z"/>
        </clipPath>
        <clipPath id="clip1">
            <path fill="#fff" d="M0 0H474V364H0z"/>
        </clipPath>
    </defs>
</svg>
