<svg xmlns="http://www.w3.org/2000/svg" width="160" height="32" viewBox="0 0 160 32">
    <defs>
        <linearGradient id="yh5y2g6lha" x1="209.46%" x2="0%" y1="205.066%" y2="0%">
            <stop offset="0%" stop-color="#743AE8"/>
            <stop offset="100%" stop-color="#3A48E8"/>
        </linearGradient>
    </defs>
    <g fill="none" fill-rule="evenodd">
        <path fill="url(#yh5y2g6lha)" d="M25.73 20.51c0 .87-.43 1.674-1.135 2.118l-1.939 1.555c-.183.116-.416-.025-.416-.252v-9.59c0-.501-.309-.943-.76-1.087l-2.409-.767c-.313-.1-.634.134-.634.463v8.553l-2.26-2.78c-.27-.168-.602-.164-.868.01l-2.165 2.77v-8.51c0-.34-.343-.576-.662-.453l-2.178.842c-.423.163-.704.589-.704 1.066v9.48c0 .228-.233.369-.417.252l-1.912-1.55c-.699-.445-1.127-1.248-1.127-2.114v-8.254c0-.98.547-1.867 1.393-2.259L14.82 6.63c.575-.267 1.238-.272 1.818-.015l7.666 3.4c.864.384 1.426 1.28 1.426 2.275v8.22zm-7.9 4.995l-1.207.62c-.462.237-1.01.237-1.47 0l-1.208-.62c-.068 0-.1-.11-.05-.17l1.992-2.392 1.992 2.392c.05.06.018.17-.05.17zM16 0C7.164 0 0 7.163 0 16s7.164 16 16 16 16-7.163 16-16S24.836 0 16 0z"/>
        <path fill="#312F4F" d="M116.442 8c1.113 0 2.106.175 2.977.525.872.35 1.56.868 2.064 1.554s.756 1.533.756 2.54v.578H118.5v-.4c0-.566-.158-1.019-.473-1.358-.315-.34-.83-.51-1.544-.51-.693 0-1.228.126-1.606.378-.378.252-.567.63-.567 1.134 0 .364.147.676.44.935.295.259.697.495 1.208.708.511.214 1.092.436 1.743.667.931.322 1.747.679 2.447 1.07.7.393 1.243.882 1.627 1.47.386.589.578 1.34.578 2.258 0 .952-.25 1.758-.75 2.42-.501.661-1.196 1.165-2.085 1.512-.889.346-1.911.519-3.066.519-1.127 0-2.132-.182-3.014-.546-.882-.363-1.575-.904-2.08-1.622-.503-.717-.755-1.612-.755-2.682v-.578h3.749v.505c0 .608.177 1.091.53 1.448.353.357.887.535 1.601.535.707 0 1.255-.108 1.644-.325.388-.217.583-.574.583-1.07 0-.358-.163-.68-.489-.967-.325-.286-.765-.55-1.318-.792s-1.176-.468-1.87-.678c-.755-.237-1.462-.554-2.12-.95-.658-.395-1.19-.902-1.596-1.522-.406-.62-.61-1.387-.61-2.304 0-.938.254-1.738.762-2.4.507-.66 1.193-1.168 2.058-1.522.865-.353 1.836-.53 2.914-.53zm-74.588.252l1.288 12.787 2.073-12.787h4.62l2.062 12.78 1.288-12.78h3.853l-2.205 15.486H49.1l-1.576-11.595-1.575 11.595h-5.744L38 8.252h3.854zm26.778 0v2.835h-5.965v3.464h4.8v2.835h-4.8v3.517h5.965v2.835h-9.735V8.252h9.735zm7.403 0c1.036 0 1.983.19 2.84.567.858.378 1.598.911 2.221 1.601s1.103 1.505 1.439 2.446c.336.942.504 1.976.504 3.103 0 1.12-.168 2.153-.504 3.102-.336.949-.816 1.771-1.439 2.467-.623.697-1.363 1.237-2.22 1.622-.858.386-1.805.578-2.841.578h-5.387V8.252zm13.945 0l4.053 12.211V8.252h3.644v15.486H91.87l-4-12.01v12.01h-3.655V8.252h5.765zm19.448 0v2.835h-5.965v3.464h4.8v2.835h-4.8v3.517h5.965v2.835h-9.735V8.252h9.735zm19.49 0c1.036 0 1.982.19 2.84.567.858.378 1.598.911 2.221 1.601s1.103 1.505 1.438 2.446c.337.942.505 1.976.505 3.103 0 1.12-.168 2.153-.505 3.102-.335.949-.815 1.771-1.438 2.467-.623.697-1.363 1.237-2.221 1.622-.858.386-1.804.578-2.84.578h-5.387V8.252zm16.507-.01l3.718 15.496h-3.844l-2.836-13.194-2.877 13.194h-3.833l3.728-15.496h5.944zm5.734.01l2.43 6.414 2.431-6.414H160l-4.547 10.163v5.323h-3.738v-5.323L147.2 8.252h3.96zM75.53 11.087h-1.124v9.816h1.124c.686 0 1.307-.2 1.864-.598.556-.4 1.003-.968 1.339-1.706.336-.739.504-1.615.504-2.63 0-1.022-.168-1.897-.504-2.625-.336-.728-.783-1.286-1.339-1.674-.557-.389-1.178-.583-1.864-.583zm52.883 0h-1.124v9.816h1.124c.685 0 1.307-.2 1.864-.598.556-.4 1.002-.968 1.338-1.706.336-.739.504-1.615.504-2.63 0-1.022-.168-1.897-.504-2.625-.336-.728-.782-1.286-1.338-1.674-.557-.389-1.179-.583-1.864-.583z"/>
    </g>
</svg>